<?xml version="1.0" standalone="no"?>
<!DOCTYPE svg PUBLIC "-//W3C//DTD SVG 20010904//EN"
 "http://www.w3.org/TR/2001/REC-SVG-20010904/DTD/svg10.dtd">
<svg version="1.0" xmlns="http://www.w3.org/2000/svg"
 width="221.000000pt" height="221.000000pt" viewBox="0 0 221.000000 221.000000"
 preserveAspectRatio="xMidYMid meet">
<metadata>
Created by potrace 1.11, written by Peter Selinger 2001-2013
</metadata>
<g transform="translate(0.000000,221.000000) scale(0.100000,-0.100000)"
fill="#000000" stroke="none">
<path d="M1089 2173 c-4 -32 -7 -93 -14 -263 -4 -107 -9 -217 -10 -245 -2 -27
-4 -90 -5 -138 -2 -55 -7 -90 -14 -93 -6 -2 -45 5 -86 16 -41 11 -132 34 -202
52 -174 44 -185 28 -33 -53 44 -23 158 -84 254 -136 96 -51 178 -93 184 -93 8
0 2 220 -8 270 -2 9 -6 79 -10 155 -4 76 -8 150 -10 164 -2 14 -6 80 -10 146
-4 66 -9 131 -10 145 -2 14 -4 37 -4 53 -1 23 -19 40 -22 20z"/>
<path d="M1209 1713 c-1 -10 -1 -29 0 -43 0 -14 1 -62 1 -108 0 -64 3 -81 13
-76 9 6 9 4 0 -7 -15 -15 -18 -33 -5 -25 12 7 11 -26 -1 -41 -6 -9 -5 -13 4
-13 10 0 10 -3 1 -12 -13 -13 -17 -32 -4 -25 4 3 8 -6 8 -19 1 -14 -2 -21 -9
-17 -6 4 -7 1 -2 -7 4 -7 8 -56 9 -109 0 -53 4 -95 9 -93 4 1 12 2 18 2 5 0 7
4 4 10 -3 5 0 7 8 5 7 -3 31 8 52 25 21 16 42 30 46 30 5 0 9 7 9 15 0 9 6 12
16 8 9 -3 19 -1 23 4 3 6 44 36 91 66 47 31 95 65 108 76 12 11 22 18 22 16 0
-3 49 29 109 70 60 41 114 75 120 75 6 0 11 3 11 8 0 4 23 21 50 37 27 17 50
36 50 43 0 7 4 10 10 7 5 -3 19 0 31 8 14 10 16 16 8 19 -13 4 -99 -38 -110
-55 -3 -5 -9 -8 -13 -8 -19 3 -27 0 -22 -8 3 -5 -2 -8 -12 -7 -9 0 -16 -5 -14
-12 1 -8 -2 -11 -7 -8 -5 4 -48 -12 -94 -36 -63 -31 -84 -46 -80 -57 4 -12 2
-13 -4 -4 -7 10 -21 7 -61 -13 -29 -14 -52 -28 -52 -30 0 -3 5 -2 12 2 7 4 8
3 4 -5 -4 -6 -11 -9 -16 -6 -14 9 -40 -6 -41 -24 0 -10 -2 -12 -6 -3 -3 9 -27
1 -80 -28 -42 -22 -77 -39 -79 -38 -1 2 -5 21 -8 42 -4 22 -11 45 -17 53 -6 7
-9 13 -6 13 3 0 1 15 -4 33 -6 17 -23 81 -39 142 -16 60 -34 111 -39 113 -5 2
-7 10 -4 18 3 8 0 14 -6 14 -6 0 -12 -8 -12 -17z m56 -203 c3 -5 1 -10 -4 -10
-6 0 -11 5 -11 10 0 6 2 10 4 10 3 0 8 -4 11 -10z m0 -80 c3 -5 1 -10 -4 -10
-6 0 -11 5 -11 10 0 6 2 10 4 10 3 0 8 -4 11 -10z m160 -120 c3 -5 1 -10 -4
-10 -6 0 -11 5 -11 10 0 6 2 10 4 10 3 0 8 -4 11 -10z"/>
<path d="M900 1672 c-59 -18 -80 -95 -36 -135 74 -69 178 26 116 105 -20 26
-53 38 -80 30z"/>
<path d="M176 1643 c-5 -5 106 -83 119 -83 3 0 3 6 -1 13 -4 7 -3 9 2 4 5 -5
9 -13 9 -18 0 -5 3 -9 8 -9 4 0 16 -9 28 -21 11 -11 27 -18 35 -15 7 3 13 2
11 -2 -1 -4 2 -8 7 -9 5 0 13 -9 18 -18 9 -16 55 -40 71 -37 4 1 7 -2 7 -7 0
-17 67 -51 86 -45 14 4 15 3 6 -4 -11 -7 -5 -15 23 -32 21 -13 44 -23 51 -23
7 0 11 -4 8 -8 -7 -12 54 -41 68 -33 7 4 8 3 4 -4 -4 -7 10 -22 32 -37 l39
-26 -99 -100 c-54 -56 -95 -105 -92 -111 4 -7 2 -8 -4 -4 -7 4 -12 2 -12 -5 0
-7 -3 -10 -6 -7 -3 3 -25 -15 -49 -40 -27 -27 -41 -50 -36 -55 11 -11 34 1 26
14 -3 5 2 6 11 2 12 -4 15 -3 10 5 -5 8 -2 10 8 6 9 -4 18 1 22 10 3 9 10 14
14 11 5 -3 20 6 33 19 14 14 27 22 30 19 3 -3 25 8 49 25 24 16 58 37 76 46
19 10 30 21 26 28 -4 7 -3 8 5 4 6 -4 18 -2 27 4 8 7 29 21 47 30 17 10 31 23
30 29 -2 6 3 8 11 5 8 -3 20 4 28 15 8 12 17 18 20 15 10 -9 48 20 48 36 0 13
-1 13 -10 0 -8 -13 -10 -12 -10 4 0 12 -5 16 -16 12 -10 -4 -13 -2 -8 6 5 7 0
9 -14 6 -12 -4 -20 -3 -17 1 6 11 -44 33 -57 25 -7 -4 -8 -2 -4 4 9 15 -28 34
-50 25 -11 -4 -15 -3 -11 4 4 6 -9 18 -31 28 -20 9 -63 30 -95 46 -33 16 -64
26 -70 22 -7 -3 -9 -2 -4 2 12 13 -235 133 -251 122 -9 -7 -11 -6 -8 4 6 17
-88 64 -105 53 -7 -4 -9 -3 -6 3 7 10 -77 55 -87 46z m274 -153 c0 -5 -2 -10
-4 -10 -3 0 -8 5 -11 10 -3 6 -1 10 4 10 6 0 11 -4 11 -10z m60 -20 c0 -5 -2
-10 -4 -10 -3 0 -8 5 -11 10 -3 6 -1 10 4 10 6 0 11 -4 11 -10z m334 -230 c-6
-6 -10 -3 -10 10 0 13 4 16 10 10 7 -7 7 -13 0 -20z m-14 -44 c0 -3 -4 -8 -10
-11 -5 -3 -10 -1 -10 4 0 6 5 11 10 11 6 0 10 -2 10 -4z m120 -6 c0 -5 -2 -10
-4 -10 -3 0 -8 5 -11 10 -3 6 -1 10 4 10 6 0 11 -4 11 -10z m-180 -34 c0 -2
-7 -7 -16 -10 -8 -3 -12 -2 -9 4 6 10 25 14 25 6z m-20 -46 c0 -5 -2 -10 -4
-10 -3 0 -8 5 -11 10 -3 6 -1 10 4 10 6 0 11 -4 11 -10z"/>
<path d="M1414 1574 c5 -14 4 -15 -9 -4 -14 12 -19 7 -16 -13 1 -5 -4 -5 -10
-1 -14 9 -29 -14 -29 -46 1 -63 87 -103 130 -60 46 46 22 117 -44 134 -24 6
-28 4 -22 -10z"/>
<path d="M1630 1296 c-19 -13 -84 -54 -145 -91 -60 -37 -132 -82 -160 -100
-27 -17 -76 -47 -107 -66 -32 -19 -56 -38 -55 -43 2 -5 23 -20 48 -33 119 -62
798 -393 808 -393 6 0 11 4 11 8 0 4 -142 97 -315 207 -173 110 -315 202 -315
205 0 3 67 74 150 159 82 85 147 158 144 162 -9 15 -27 10 -64 -15z"/>
<path d="M585 1270 c-3 -6 -10 -8 -14 -6 -14 9 -53 -25 -47 -41 3 -8 2 -12 -3
-9 -19 12 -7 -46 15 -69 43 -46 114 -24 130 41 4 16 2 29 -6 34 -6 4 -11 11
-9 16 4 14 -58 47 -66 34z"/>
<path d="M560 850 c-343 -231 -410 -280 -384 -280 7 0 176 84 299 150 235 125
367 191 371 188 2 -3 29 -94 60 -204 51 -186 66 -225 79 -213 10 10 9 26 -9
584 -1 18 -7 31 -16 32 -8 1 -188 -114 -400 -257z"/>
<path d="M1574 1095 c-41 -17 -57 -59 -39 -102 15 -36 21 -40 62 -47 37 -7 78
21 87 59 16 62 -50 115 -110 90z"/>
<path d="M1030 953 c0 -33 3 -42 13 -37 7 5 7 1 -2 -10 -13 -15 -13 -19 0 -27
10 -6 10 -9 2 -9 -7 0 -13 -7 -13 -16 0 -9 5 -12 13 -8 9 5 9 4 0 -6 -10 -11
-9 -16 5 -27 9 -8 11 -11 3 -7 -10 5 -12 -2 -9 -33 3 -22 9 -46 13 -53 5 -8 4
-11 -2 -7 -7 4 -9 -17 -5 -61 2 -37 8 -69 14 -70 5 -2 4 -10 -3 -18 -9 -11 -8
-14 2 -14 9 0 10 -3 3 -10 -6 -6 -8 -31 -4 -61 4 -27 6 -61 5 -74 0 -14 2 -25
5 -25 3 0 5 -33 4 -73 0 -82 3 -100 20 -90 8 5 8 3 0 -8 -12 -16 -11 -159 2
-159 10 -1 12 20 17 138 2 61 0 92 -7 92 -6 0 -5 4 2 8 8 6 11 26 9 60 -1 29
0 52 3 52 9 0 6 62 -3 77 -4 6 -3 14 2 17 5 4 9 40 9 82 0 41 2 78 6 81 3 3 0
13 -7 21 -6 9 -7 13 -1 9 7 -4 11 8 11 36 0 75 1 77 28 75 14 -1 25 -6 25 -10
0 -4 7 -8 16 -8 9 0 13 5 9 13 -4 6 0 4 9 -7 8 -10 19 -15 25 -11 6 3 11 2 11
-3 0 -9 8 -11 60 -14 16 -1 28 -4 25 -7 -5 -4 189 -58 218 -60 4 -1 7 6 7 14
0 13 -6 17 -26 14 -4 0 -10 4 -13 9 -10 16 -137 82 -144 75 -4 -3 -7 -2 -7 4
0 6 -22 23 -50 37 -27 14 -50 24 -50 20 0 -3 -7 2 -16 11 -9 9 -23 14 -31 11
-8 -3 -12 -2 -9 3 6 9 -76 54 -99 54 -8 0 -12 4 -10 8 5 7 -24 23 -37 21 -5
-1 -8 2 -8 7 0 5 -9 11 -20 14 -18 5 -20 0 -20 -40z m120 -43 c0 -5 -2 -10 -4
-10 -3 0 -8 5 -11 10 -3 6 -1 10 4 10 6 0 11 -4 11 -10z m-20 -94 c0 -2 -7 -7
-16 -10 -8 -3 -12 -2 -9 4 6 10 25 14 25 6z m180 -20 c0 -3 -4 -8 -10 -11 -5
-3 -10 -1 -10 4 0 6 5 11 10 11 6 0 10 -2 10 -4z"/>
<path d="M744 789 c-49 -18 -68 -79 -38 -124 39 -60 143 -28 144 45 0 52 -60
97 -106 79z"/>
<path d="M1244 695 c-51 -21 -60 -80 -19 -121 21 -21 32 -24 61 -19 46 7 54
12 47 31 -3 9 0 14 7 12 7 -2 15 3 18 11 3 10 0 11 -9 5 -11 -6 -12 -5 -3 7
21 25 -11 75 -53 83 -10 2 -32 -2 -49 -9z m0 -95 c-6 -6 -10 -3 -10 10 0 13 4
16 10 10 7 -7 7 -13 0 -20z m46 16 c0 -3 -4 -8 -10 -11 -5 -3 -10 -1 -10 4 0
6 5 11 10 11 6 0 10 -2 10 -4z"/>
</g>
</svg>
